<?xml version="1.0" encoding="UTF-8"?>
<!-- Generator: Adobe Illustrator 23.0.3, SVG Export Plug-In . SVG Version: 6.00 Build 0)  -->
<svg version="1.1" id="Layer_1" xmlns="http://www.w3.org/2000/svg" xmlns:xlink="http://www.w3.org/1999/xlink" x="0px" y="0px" viewBox="0 0 200 60" style="enable-background:new 0 0 200 60;" xml:space="preserve">
<style type="text/css">
	.st0{fill:#003964;}
	.st1{fill:#ED1A3B;}
	.st2{fill:#58595B;}
</style>
<g>
	<g>
		<g>
			<g>
				<g>
					<g>
						<g>
							<path class="st0" d="M45.7,28.7c-5.1-3.5-11.7-2.1-15.2,3.2c-2.9,4.4-7.2,4.9-8.9,4.9c-5.5,0-9.3-3.9-10.4-7.9h0         c0,0,0-0.1,0-0.1c0,0,0-0.1,0-0.1c-0.4-1.7-0.5-2.5-0.5-4.2c0-9.6,9.8-20.2,24-20.2c14.5,0,22.8,11,24.9,17.2         c0-0.1-0.1-0.2-0.1-0.3C55.2,9,43.9,0.4,30.5,0.4C13.7,0.4,0,14.1,0,30.9C0,46,10.9,58.8,25.9,58.8c12,0,20.1-6.7,23.8-16         C51.7,37.8,50.3,31.8,45.7,28.7z"/>
						</g>
						<g>
							<path class="st1" d="M59.6,21.9C57.9,16,49.5,4.2,34.5,4.2c-14.1,0-24,10.7-24,20.2c0,1.8,0.1,2.6,0.5,4.2         c-0.2-0.7-0.3-1.5-0.3-2.2c0-10,10-16.9,20.2-16.9c13.9,0,25.1,11.3,25.1,25.1c0,10.9-6.3,20.3-15.4,24.8l0,0         C52.6,55.3,61,44.1,61,30.9C61,27.8,60.6,25,59.6,21.9z"/>
						</g>
					</g>
				</g>
			</g>
		</g>
	</g>
	<g>
		<path class="st2" d="M96.6,34.7v8.5h-3v-5.8h-16v-2.6h8.2v-3.6H76v-2.6h22.4v2.6h-9.7v3.6H96.6z M96.6,19.2v7.3h-3v-4.6H77.8v-2.7    H96.6z"/>
		<path class="st2" d="M122.1,34.2h-7.9v4.4h9.7v2.6h-22.4v-2.6h9.7v-4.4h-7.9V20H122v2.6h-15.8v3.2H122v2.6h-15.8v3.2h15.8V34.2z"/>
		<path class="st2" d="M132.3,38.7v-7.6h2.9v7.6h4.1v-7.6h2.9v7.6h7.2v2.6H127v-2.6H132.3z M144.6,34.4V22.7h-15.8V20h18.8v14.4    H144.6z"/>
		<path class="st2" d="M174.6,32.7h-22.4v-2.5h9.7v-1.6H154V19h18.8v2.5H157v1.2h15.8V25H157v1.2h15.9v2.4h-7.9v1.6h9.7V32.7z     M169.4,38.7c0,0.8-0.2,1.5-0.5,2.2c-0.3,0.7-0.7,1.3-1.3,1.7c-0.5,0.5-1.2,0.9-1.9,1.2c-0.7,0.3-1.5,0.5-2.3,0.5    c-0.8,0-1.6-0.2-2.3-0.5c-0.7-0.3-1.4-0.7-1.9-1.2c-0.5-0.5-1-1.1-1.3-1.7c-0.3-0.7-0.5-1.4-0.5-2.2c0-0.8,0.2-1.5,0.5-2.1    c0.3-0.7,0.7-1.2,1.3-1.7c0.5-0.5,1.2-0.9,1.9-1.2c0.7-0.3,1.5-0.5,2.3-0.5c0.8,0,1.6,0.2,2.3,0.5c0.7,0.3,1.3,0.7,1.9,1.2    c0.5,0.5,1,1.1,1.3,1.7C169.2,37.2,169.4,37.9,169.4,38.7z M166.5,38.6c0-0.8-0.3-1.5-0.9-2.1c-0.6-0.6-1.3-0.9-2.1-0.9    c-0.8,0-1.6,0.3-2.1,0.9c-0.6,0.6-0.9,1.3-0.9,2.1c0,0.8,0.3,1.5,0.9,2.1c0.6,0.6,1.3,0.9,2.1,0.9c0.8,0,1.5-0.3,2.1-0.9    C166.2,40.1,166.5,39.4,166.5,38.6z"/>
		<path class="st2" d="M177.6,34.1H200v2.7h-9.7v6.3h-3v-6.3h-9.7V34.1z M182.4,22.2h12.8v-3.1h3v11.7h-18.8V19.1h3V22.2z     M195.2,24.8h-12.8v3.4h12.8V24.8z"/>
	</g>
</g>
</svg>