<svg xmlns="http://www.w3.org/2000/svg" width="90" height="32" viewBox="0 0 90 32">
    <path fill="#E20D3A" fill-rule="evenodd" d="M70.707 21.318l-.94-9.98-5.36 9.98H62.02l7.253-13.04h2.367l1.467 13.04h-2.4zm-13.407 0l.06-9.747-4.447 9.747h-2.446l.413-13.04h2.287l-.42 8.96 4.086-8.96h2.68l-.173 9.106 3.773-9.106h2.247l-5.653 13.04H57.3zm-11.12 0h-2.233l1.22-5.387h-4.38l-1.22 5.387H37.34l2.993-13.04h2.234l-1.274 5.453h4.38l1.274-5.453h2.226l-2.993 13.04zm-13.867 0l1.987-7.614-4.447 7.614h-1.966l-1.26-7.48-2.054 7.48H22.5l3.353-13.04h2.28l1.42 9.553 5.46-9.553h3.034l-3.36 13.04h-2.374zm-13.373 0l-1-9.98-5.293 9.98h-2.394l7.254-13.04h2.373l1.46 13.04h-2.4zM0 5.058l2.413 12.006 1.954-.253c-.102.65.013 1.315.326 1.893.32.419.83.645 1.354.6.58.026 1.148-.166 1.593-.54.386-.32.654-.762.76-1.253.187-.552-.104-1.152-.653-1.347-.214-.106-.72-.293-1.507-.566-.794-.202-1.501-.653-2.02-1.287-.479-.787-.614-1.737-.373-2.627.142-.673.423-1.309.826-1.866.391-.563.919-1.017 1.534-1.32.646-.31 1.356-.465 2.073-.454 1.26 0 2.14.36 2.62 1.087.511.873.655 1.914.4 2.893l-2.06.094c.093-.496.006-1.01-.247-1.447-.298-.33-.737-.497-1.18-.447-.53-.017-1.051.15-1.473.474-.258.202-.434.49-.493.813-.072.271-.024.56.133.793.47.439 1.051.74 1.68.874.71.2 1.38.514 1.987.933.414.34.704.806.826 1.327.152.686.14 1.399-.033 2.08-.16.756-.476 1.471-.927 2.1-.42.622-.994 1.125-1.666 1.46-.718.331-1.503.493-2.294.473-.873.064-1.736-.221-2.4-.793L5.36 31.73c21.913-4.86 54.533-4.767 78.453-.18l5.52-26.673C60.747-1.656 26.633-1.656 0 5.058"/>
</svg>