<svg xmlns="http://www.w3.org/2000/svg" xmlns:xlink="http://www.w3.org/1999/xlink" width="72" height="72" viewBox="0 0 72 72">
    <defs>
        <path id="i3vrxw8vva" d="M0 72L72 72 72 0 0 0z"/>
    </defs>
    <g fill="none" fill-rule="evenodd">
        <g>
            <g transform="translate(-168 -12) translate(168 12)">
                <mask id="n7iejsgp7b" fill="#fff">
                    <use xlink:href="#i3vrxw8vva"/>
                </mask>
                <path fill="#FFF" d="M56.9 48.204c-.544.98-1.143 1.93-1.801 2.836-.696.96-1.463 1.878-2.306 2.745-2.29 2.353-5.023 4.25-8.058 5.543-2.923 1.246-6.128 1.934-9.485 1.934-2.244 0-4.422-.308-6.493-.885-2.14-.595-4.163-1.477-6.029-2.601-1.56-.94-3.014-2.053-4.336-3.313-1.325-1.263-2.517-2.672-3.55-4.2-.184-.275-.376-.755-.376-1.152 0-.132.02-.26.067-.377.054-.133.14-.246.264-.33v-.001c.129-.088.293-.138.499-.138h.168l.09.145c.994 1.605 2.17 3.081 3.5 4.398 1.325 1.312 2.804 2.467 4.406 3.432 1.758 1.06 3.663 1.889 5.673 2.448 1.947.541 3.998.83 6.117.83 3.163 0 6.178-.645 8.927-1.814 2.856-1.215 5.427-2.997 7.576-5.206.697-.717 1.364-1.471 1.976-2.263.504-.65.97-1.327 1.39-2.03H56.9zM27.815 49.71c.709 0 .965.607.945.926h-.41c0-.28-.18-.524-.531-.524-.347 0-.484.193-.496.398-.012.224.157.33.33.393.099.04.221.067.35.103.135.039.28.086.418.157.26.138.45.41.418.748-.04.417-.39.8-1.004.8-.67 0-1.067-.548-1.048-1.036h.41c0 .374.28.634.642.634.326 0 .511-.154.559-.394.067-.362-.347-.488-.61-.555-.127-.035-.256-.063-.386-.118-.335-.146-.544-.382-.524-.76.024-.358.311-.772.937-.772zm17.957 0c.477 0 .811.406.847.807h-.382c-.036-.204-.185-.429-.469-.429-.275 0-.397.185-.48.418-.067.189-.083.385-.079.523.134-.157.335-.283.618-.275.48.011.811.448.808.976-.004.543-.375.976-.886.976-.477 0-.772-.342-.898-.775-.11-.382-.102-1.095.043-1.508.15-.425.45-.709.878-.713zm-4.366-.004c.476 0 .776.339.902.764.114.394.114 1.103-.032 1.516-.153.433-.449.713-.878.717-.472.003-.823-.414-.862-.808h.386c.035.21.189.43.472.43.276 0 .402-.19.484-.418.067-.185.08-.382.071-.523-.13.157-.354.287-.614.275-.484-.016-.827-.417-.807-.98.02-.544.366-.973.878-.973zm-7.512.012c.709 0 1.055.606 1.118.965h-.445c-.063-.252-.26-.56-.661-.56-.457 0-.76.43-.76 1.083 0 .658.303 1.095.76 1.095.39 0 .598-.319.67-.595h.444c-.083.418-.433.993-1.126.993-.736 0-1.19-.615-1.19-1.493 0-.87.454-1.488 1.19-1.488zm6.13.075v2.839h-.417V50.62h-.544v-.331c.162 0 .3-.031.433-.142.095-.075.178-.212.178-.354h.35zm-9.3 0l1.134 2.095v-2.091h.418v2.827h-.5l-1.122-2.087v2.087h-.422v-2.831h.492zm-1.078.004v2.827h-.41v-2.827h.41zm7.579 0v.398h-1.41v.78h1.35v.393h-1.35v.854h1.45v.402h-1.86v-2.827h1.82zm7.043-.016v2.051h.315v.359h-.315v.429h-.41v-.43h-1.176v-.472l1.173-1.937h.413zm1.465 1.355c-.28 0-.488.232-.488.59 0 .362.208.595.488.595.287 0 .492-.233.492-.595 0-.358-.205-.59-.492-.59zm-1.874-.623l-.788 1.32h.788v-1.32zm-2.43-.401c-.283 0-.48.224-.48.567 0 .354.197.583.48.583.276 0 .477-.229.477-.583 0-.343-.2-.567-.476-.567zm23.029-9.999c.173 0 .26.054.26.16 0 .06-.056.104-.169.132-.28.077-.486.232-.62.466-.135.234-.415.961-.842 2.18-.555 1.584-.958 2.642-1.209 3.176-.25.534-.528.914-.833 1.141-.305.228-.63.341-.976.341-.31 0-.553-.076-.728-.23-.174-.153-.262-.35-.262-.591 0-.155.062-.302.187-.441.124-.139.287-.208.489-.208.324 0 .53.193.616.578.047.195.12.292.217.292.245 0 .51-.25.793-.75.283-.5.425-.872.425-1.117 0-.123-.112-.453-.337-.993-.225-.539-.528-1.238-.908-2.096-.38-.858-.622-1.352-.727-1.48-.105-.128-.227-.208-.364-.24-.142-.03-.213-.08-.213-.152 0-.104.092-.157.277-.157.043 0 .19.013.438.038.152.018.347.027.585.027.394 0 .739-.014 1.035-.043l.233-.022c.144 0 .217.049.217.146 0 .094-.087.157-.26.19-.116.021-.206.07-.271.148-.065.078-.098.153-.098.225 0 .079.096.38.288.9.16.434.364.934.612 1.498l.154.342.443-1.222c.24-.68.36-1.147.36-1.4 0-.298-.17-.472-.509-.519-.151-.025-.227-.077-.227-.156 0-.101.074-.152.222-.152.058 0 .162.01.314.027.16.018.347.027.564.027.144 0 .32-.01.526-.032.173-.022.272-.033.298-.033zm-12.483-.086c.45 0 .817.068 1.1.205.283.137.464.296.544.476.079.18.119.461.119.844l-.011 1.28c0 .675.022 1.107.067 1.298.045.191.142.287.29.287.021 0 .05-.002.086-.006.072-.007.12-.01.146-.01.148 0 .222.041.222.124 0 .054-.031.1-.092.138-.062.038-.246.085-.554.143-.309.058-.587.087-.836.087-.248 0-.419-.048-.51-.142-.092-.095-.147-.257-.165-.486-.224.213-.45.373-.676.479-.227.106-.456.16-.687.16-.367 0-.651-.112-.851-.334-.2-.222-.3-.492-.3-.81 0-.245.06-.464.18-.657.12-.194.27-.343.448-.45.178-.106.472-.234.882-.382.346-.123.577-.22.694-.29.116-.07.214-.173.294-.308.079-.135.118-.31.118-.525 0-.237-.059-.426-.177-.568-.119-.142-.282-.212-.49-.212-.18 0-.307.044-.382.134-.076.093-.133.242-.173.447-.082.409-.304.613-.664.613-.148 0-.274-.043-.379-.13-.105-.086-.157-.21-.157-.372 0-.346.189-.605.565-.776.377-.171.826-.257 1.35-.257zm-14.013.022c.67 0 1.181.225 1.533.675.351.45.527.88.527 1.287 0 .13-.035.207-.103.233-.068.025-.29.037-.665.037l-2.346.033c-.004.104-.006.18-.006.227 0 .512.125.945.376 1.3.25.355.588.533 1.014.533.436 0 .865-.19 1.286-.568.087-.076.148-.114.184-.114.094 0 .14.05.14.152 0 .08-.107.221-.324.427-.216.205-.48.36-.794.465-.314.104-.638.157-.973.157-.736 0-1.311-.225-1.728-.674-.416-.448-.624-.977-.624-1.586 0-.732.239-1.345.716-1.841.478-.496 1.073-.743 1.787-.743zm9.045-.011c.364 0 .733.108 1.108.324.05.029.092.043.124.043.047 0 .083-.04.108-.119.036-.1.089-.151.157-.151.047 0 .08.016.098.049.018.032.043.2.075.505.033.305.049.558.049.76 0 .14-.042.21-.124.21-.087 0-.175-.1-.265-.302-.307-.67-.748-1.006-1.325-1.006-.209 0-.378.053-.508.157-.13.105-.195.216-.195.335 0 .152.083.29.249.417.166.13.488.304.968.524.41.187.696.332.857.435.16.103.296.25.408.443.111.193.167.396.167.609 0 .26-.067.512-.202.757s-.34.447-.611.608c-.272.16-.59.24-.954.24-.455 0-.838-.093-1.152-.28-.137-.08-.225-.12-.265-.12-.047 0-.083.03-.108.09-.058.142-.126.213-.205.213-.047 0-.08-.018-.1-.054-.02-.036-.037-.196-.05-.482-.012-.286-.018-.625-.018-1.016 0-.151.043-.227.13-.227.086 0 .178.112.275.336.346.81.819 1.216 1.417 1.216.209 0 .386-.054.532-.162.146-.108.22-.265.22-.47 0-.174-.068-.322-.203-.447-.136-.124-.394-.28-.776-.467-.577-.285-.972-.534-1.184-.746-.216-.213-.325-.496-.325-.85 0-.406.157-.737.47-.991.314-.254.7-.381 1.158-.381zm-11.678.092c.112 0 .168.052.168.156 0 .079-.076.131-.227.157-.343.054-.627.37-.854.946-.26.66-.506 1.27-.742 1.833-.235.562-.416.969-.542 1.22-.126.25-.202.385-.23.405-.026.02-.06.03-.099.03-.048 0-.093-.035-.137-.103-.037-.057-.173-.318-.406-.783l-.153-.304-1.249-2.487c-.18-.354-.317-.566-.41-.636-.095-.07-.176-.114-.244-.132-.14-.032-.211-.082-.211-.151 0-.1.068-.151.205-.151.058 0 .148.005.27.014.293.027.577.04.855.04.112 0 .238-.005.378-.015.256-.023.41-.034.46-.034.238 0 .357.042.357.124 0 .101-.067.159-.2.173-.188.018-.281.105-.281.26 0 .094.151.465.455 1.114.303.648.56 1.16.77 1.535.233-.5.45-1.028.651-1.581.202-.554.302-.898.302-1.033 0-.145-.083-.24-.248-.284-.159-.043-.238-.103-.238-.178 0-.09.065-.135.194-.135.065 0 .199.01.4.03.184.016.312.024.384.024.106 0 .207-.006.303-.016l.14-.02c.076-.012.136-.018.18-.018zm-24.213-2.682c.475 1.03 1.147 2.653 2.015 4.866.4 1.016.675 1.632.827 1.848.151.217.39.348.719.395.108.015.162.062.162.141 0 .112-.07.168-.21.168-.076 0-.273-.013-.59-.038-.375-.033-.69-.049-.946-.049-.249 0-.573.014-.973.043-.3.022-.496.033-.59.033-.165 0-.248-.053-.248-.157 0-.08.057-.124.173-.135.443-.04.665-.214.665-.523 0-.145-.065-.41-.194-.797-.13-.386-.268-.737-.416-1.054l-.44-.005h-.856l-.948.005c-.31.851-.466 1.414-.466 1.69 0 .198.078.351.233.46.155.11.322.173.503.191.136.015.205.07.205.168 0 .097-.074.146-.222.146-.057 0-.209-.01-.454-.027-.317-.025-.548-.038-.692-.038-.285 0-.555.018-.81.054-.066.01-.12.016-.163.016-.133 0-.2-.054-.2-.162 0-.08.043-.131.13-.157.216-.06.385-.136.508-.226.122-.09.255-.261.397-.516.143-.255.313-.663.512-1.226.448-1.261 1.115-2.966 2-5.114h.369zm11.74 2.579c.138.313.217.665.239 1.054.245-.346.51-.605.797-.778.287-.173.594-.26.922-.26.274 0 .524.07.751.211.227.14.381.308.463.503.08.194.121.47.121.827L26.1 43.74c0 .296.028.492.082.59.054.097.167.16.34.189.144.025.216.083.216.173 0 .093-.07.14-.21.14-.12 0-.38-.014-.784-.043-.14-.007-.254-.01-.34-.01-.084 0-.322.017-.715.053h-.264c-.148 0-.222-.049-.222-.146 0-.08.067-.131.2-.157.122-.025.22-.066.292-.124.072-.058.12-.341.143-.85.023-.509.035-1.014.035-1.516 0-.556-.044-.936-.132-1.142-.089-.206-.257-.309-.506-.309-.306 0-.59.225-.851.673-.262.449-.392 1.138-.392 2.068 0 .36.018.622.054.784.036.162.08.264.132.306.053.041.163.076.333.105.1.018.151.07.151.157 0 .1-.074.151-.221.151-.073 0-.152-.003-.238-.01-.346-.03-.534-.044-.563-.044-.519 0-.944.018-1.275.054-.054.007-.098.01-.13.01-.134 0-.2-.051-.2-.156 0-.09.06-.142.178-.157.184-.021.308-.072.373-.151.065-.08.113-.328.143-.745.031-.416.046-.913.046-1.49 0-.737-.027-1.193-.08-1.368-.055-.175-.184-.302-.39-.381-.148-.058-.222-.114-.222-.168 0-.087.107-.13.32-.13.598 0 1.082-.023 1.454-.07zm-5.995 0c.137.313.216.665.238 1.054.245-.346.51-.605.797-.778.287-.173.594-.26.922-.26.274 0 .525.07.752.211.227.14.38.308.462.503.081.194.122.47.122.827l-.05 2.157c0 .296.028.492.082.59.054.097.168.16.34.189.145.025.217.083.217.173 0 .093-.07.14-.211.14-.119 0-.38-.014-.784-.043-.14-.007-.254-.01-.34-.01-.083 0-.321.017-.714.053h-.265c-.148 0-.222-.049-.222-.146 0-.08.067-.131.2-.157.123-.025.22-.066.292-.124.072-.058.12-.341.144-.85.023-.509.035-1.014.035-1.516 0-.556-.045-.936-.133-1.142-.088-.206-.257-.309-.505-.309-.307 0-.59.225-.852.673-.261.449-.392 1.138-.392 2.068 0 .36.018.622.054.784.036.162.08.264.133.306.052.041.163.076.332.105.101.018.152.07.152.157 0 .1-.074.151-.222.151-.072 0-.151-.003-.238-.01-.346-.03-.533-.044-.562-.044-.52 0-.944.018-1.276.054-.054.007-.097.01-.13.01-.133 0-.2-.051-.2-.156 0-.09.06-.142.179-.157.183-.021.308-.072.373-.151.064-.08.112-.328.143-.745.03-.416.046-.913.046-1.49 0-.737-.027-1.193-.081-1.368-.054-.175-.184-.302-.39-.381-.147-.058-.221-.114-.221-.168 0-.087.106-.13.319-.13.598 0 1.083-.023 1.454-.07zm41.385.005c.274 0 .493.08.657.238.164.159.246.357.246.595 0 .187-.058.347-.175.478-.118.132-.26.198-.43.198-.126 0-.23-.033-.314-.098-.083-.065-.171-.18-.265-.346-.13-.238-.243-.356-.34-.356-.134 0-.285.135-.454.404-.17.27-.254.794-.254 1.571 0 .983.033 1.53.1 1.639.066.11.213.165.44.165.198 0 .297.054.297.162 0 .1-.097.151-.291.151-.109 0-.265-.01-.47-.03-.188-.016-.365-.024-.53-.024-.357 0-.71.013-1.06.038-.148.01-.235.016-.26.016-.151 0-.227-.057-.227-.17 0-.1.088-.152.265-.16.173-.007.294-.047.362-.121.069-.074.103-.235.103-.483l.022-1.35c0-.274-.011-.614-.033-1.02-.021-.407-.041-.65-.06-.727-.017-.077-.063-.146-.137-.208-.074-.06-.174-.097-.3-.108-.13-.014-.212-.031-.246-.05-.034-.02-.052-.061-.052-.123 0-.097.09-.147.27-.15.332-.004.896-.048 1.693-.13l.038 1.086c.18-.364.387-.636.622-.816.234-.18.495-.27.783-.27zm-29.048-.005c.012.427.02 1.136.021 2.129v.569l-.015 1.162c0 .234.038.391.116.47.077.08.204.132.381.157.202.025.303.083.303.173 0 .097-.08.146-.238.146-.076 0-.207-.005-.395-.016-.396-.025-.789-.038-1.178-.038-.191 0-.386.01-.584.03-.12.016-.2.024-.243.024-.16 0-.238-.049-.238-.146 0-.094.104-.15.313-.167.278-.026.433-.118.465-.279.033-.16.049-.485.049-.976 0-.634-.01-1.217-.03-1.749-.02-.531-.057-.835-.11-.91-.055-.076-.195-.127-.422-.152-.177-.018-.265-.07-.265-.157 0-.086.09-.137.27-.151l.114-.011 1.686-.108zm14.635.005c.274 0 .493.08.657.238.164.159.246.357.246.595 0 .187-.059.347-.176.478-.117.132-.26.198-.43.198-.126 0-.23-.033-.313-.098-.083-.065-.171-.18-.265-.346-.13-.238-.243-.356-.34-.356-.134 0-.285.135-.455.404-.17.27-.254.794-.254 1.571 0 .983.034 1.53.1 1.639.067.11.214.165.44.165.2 0 .298.054.298.162 0 .1-.097.151-.292.151-.108 0-.265-.01-.47-.03-.188-.016-.364-.024-.53-.024-.357 0-.71.013-1.06.038-.147.01-.234.016-.259.016-.151 0-.227-.057-.227-.17 0-.1.088-.152.265-.16.173-.007.294-.047.362-.121s.103-.235.103-.483l.021-1.35c0-.274-.01-.614-.032-1.02-.022-.407-.042-.65-.06-.727-.018-.077-.064-.146-.137-.208-.074-.06-.174-.097-.3-.108-.13-.014-.212-.031-.246-.05-.035-.02-.052-.061-.052-.123 0-.097.09-.147.27-.15.332-.004.896-.048 1.693-.13l.038 1.086c.18-.364.387-.636.621-.816.235-.18.496-.27.784-.27zm8.618 2.066c-.087.104-.294.243-.622.417-.3.159-.5.3-.6.423-.1.126-.151.309-.151.547 0 .253.053.445.16.577.105.132.236.198.391.198.21 0 .404-.097.584-.29.18-.193.27-.534.27-1.022 0-.151-.01-.435-.032-.85zm-14.56-1.73c-.554 0-.872.517-.95 1.551.414.006.693.01.835.01h.089c.407 0 .656-.028.748-.086.092-.057.138-.174.138-.351 0-.295-.084-.557-.254-.784-.17-.227-.371-.34-.605-.34zm-27.526-1.033l-.938 2.417 1.911-.028c-.1-.282-.255-.67-.464-1.163-.227-.533-.397-.942-.509-1.226zm17.98-1.914c.212 0 .395.076.548.227.153.152.23.335.23.552 0 .212-.077.395-.23.548-.153.154-.336.23-.549.23-.216 0-.4-.076-.551-.23-.152-.153-.227-.336-.227-.548 0-.217.075-.4.227-.552.151-.151.335-.227.551-.227zM44.218 11.39h.085l.118.006.062.004.06.004c.056.005.11.01.165.018l.072.01c.055.007.11.016.165.026l.11.02c.138.028.273.06.403.095.104.029.205.06.303.091l.22.076c.284.103.534.214.72.308l.659.337c1.526.8 2.983 1.694 4.33 2.709l.46.354c1.365 1.079 2.614 2.294 3.703 3.682l.388.508c1.018 1.371 1.896 2.856 2.612 4.432l.223.505c1.302 3.041 2 6.308 2 9.626l-.004.461c-.006.309-.018.618-.036.929l-.029.44c-.022.291-.049.582-.08.87h-1.786c.164-1.563.197-3.193.054-4.79-.129-1.453-.404-2.883-.856-4.216-1.22-3.598-3.354-6.884-6.177-9.478-2.702-2.483-6.038-4.333-9.809-5.215l-.323-.076.103-.315c.038-.118.084-.23.136-.333.352-.702.955-1.001 1.626-1.072l.16-.012.048-.002.028-.001h.03l.057-.001zm-18.873 4.264c.3 0 .405.093.425.238l.003.057v.206c0 .118 0 .236-.047.399l-.044.131-6.557 18.8c-.081.261-.236.384-.549.407l-.125.005H14.93c-.368 0-.579-.075-.489-.435l.03-.096 6.034-17.241c-.01-.378-.22-.536-.44-.597l-.074-.017h-3.376c-.766 0-1.501.147-2.053.5-.429.295-1.01.737-1.5 1.592-.338.589-.797.884-1.533.618-.486-.165-.438-.663-.28-1.065l.035-.084 1.41-3.005c.14-.272.282-.394.857-.41l.153-.003h11.643zM54.567 29.26c.51 0 .92.199 1.279.437l-.378.642c-.25-.17-.622-.345-.83-.345-.359 0-.547.146-.547.428 0 .282.467.438.825.603.736.34 1.11.662 1.11 1.255 0 .91-.794 1.24-1.463 1.24-.515 0-1.048-.16-1.534-.661l.463-.613c.33.345.73.525.99.525.302 0 .67-.087.67-.491 0-.195-.292-.37-.641-.535-.585-.277-1.302-.608-1.302-1.308 0-.91.712-1.177 1.358-1.177zm-4.373.063c.783 0 1.467.486 1.467 1.274 0 .535-.344.973-.82 1.187l1.122 1.673h-.995l-1.024-1.552h-.425v1.552h-.835v-4.134h1.51zm-14.44 0l.806 1.585.807-1.585h.93l-1.322 2.505v1.624h-.83v-1.624l-1.321-2.505h.93zm6.646 0v.705h-1.93v.924h1.84v.715h-1.84v1.075h1.987v.71H39.64v-4.13h2.76zm3.378 0l1.552 4.13h-.877l-.35-.915h-1.391l-.344.914h-.878l1.548-4.13h.74zM38.038 10.8c.351 0 .579.149.5.423l-.028.078-.472 1.06c-.13.263-.378.292-.659.295h-4.91l-1.208 4.361c3.39.179 6.104 1.454 7.224 3.84l-.005-.01 1.433-1.432.202.201-13.292 13.292-.202-.201 1.784-1.784c-1.943-.3-2.654-1.121-2.654-1.943 0-.913.62-1.503 1.827-1.503 1.208 0 1.974.59 2.711 1.15l.118.09.117.086 4.082-4.082c.005-.073.008-.147.01-.22l.004-.235c0-3.713-2.239-5.481-4.685-5.481-.618 0-1.355.06-1.944.177-.924.196-1.076-.087-.913-.697l.029-.099.016-.042 2.064-6.543s.128-.602.557-.748l.114-.026.002-.007h8.178zm7.368 19.718l-.434 1.29h.872l-.438-1.29zm4.793-.491h-.68v1.172h.656c.33 0 .651-.214.651-.603 0-.394-.297-.569-.627-.569z" mask="url(#n7iejsgp7b)"/>
            </g>
        </g>
    </g>
</svg>